<svg width="13" height="13" viewBox="0 0 13 13" fill="none" xmlns="http://www.w3.org/2000/svg">
<path fill-rule="evenodd" clip-rule="evenodd" d="M0 2.25C0 1.00736 1.00736 0 2.25 0H6.75C7.25896 0 7.72844 0.168986 8.10541 0.453912C8.67954 0.887856 8.19021 1.61816 7.47053 1.61816C7.34345 1.61816 7.21905 1.58787 7.09455 1.55755C7.01673 1.53859 6.93887 1.51963 6.86029 1.50805C6.82429 1.50275 6.78747 1.5 6.75 1.5H2.25C1.83579 1.5 1.5 1.83579 1.5 2.25V8.0921C1.5 8.24141 1.54363 8.38053 1.61883 8.4974C1.68446 8.59939 1.76576 8.69998 1.84793 8.80166C2.04642 9.04727 2.25 9.29917 2.25 9.5921C2.25 10.0063 1.905 10.3543 1.51358 10.2188C0.632599 9.91382 0 9.07684 0 8.0921V2.25ZM5.5 2.25C4.25736 2.25 3.25 3.25736 3.25 4.5V10.5C3.25 11.7426 4.25736 12.75 5.5 12.75H10C11.2426 12.75 12.25 11.7426 12.25 10.5V4.5C12.25 3.25736 11.2426 2.25 10 2.25H5.5ZM4.75 4.5C4.75 4.08579 5.08579 3.75 5.5 3.75H10C10.4142 3.75 10.75 4.08579 10.75 4.5V10.5C10.75 10.9142 10.4142 11.25 10 11.25H5.5C5.08579 11.25 4.75 10.9142 4.75 10.5V4.5Z" fill="currentColor"/>
</svg>
