<svg width="54" height="63" viewBox="0 0 54 63" fill="none" xmlns="http://www.w3.org/2000/svg">
<path fill-rule="evenodd" clip-rule="evenodd" d="M13 28.2068C13 32.3853 16.1229 35.8345 20.162 36.3477C20.0556 35.7478 20 35.1304 20 34.5C20 33.1788 20.244 31.9146 20.6894 30.75H19.3349C18.5651 30.75 18.084 29.9167 18.4689 29.25L20.634 25.5C21.0189 24.8333 21.9811 24.8333 22.366 25.5L23.2031 26.9498C24.608 25.5917 26.3909 24.6222 28.3787 24.2144C26.9762 21.7003 24.29 20 21.2068 20C16.6743 20 13 23.6743 13 28.2068ZM39.7241 35.0617C39.7241 39.5942 36.0498 43.2685 31.5173 43.2685C26.9848 43.2685 23.3105 39.5942 23.3105 35.0617C23.3105 30.5293 26.9848 26.855 31.5173 26.855C36.0498 26.855 39.7241 30.5293 39.7241 35.0617ZM30.7695 32.7069C31.16 32.3164 31.7931 32.3164 32.1837 32.7069L34.2461 34.7693C34.6366 35.1599 34.6366 35.793 34.2461 36.1835L32.1837 38.246C31.7931 38.6365 31.16 38.6365 30.7695 38.246L28.707 36.1835C28.3165 35.793 28.3165 35.1599 28.707 34.7693L30.7695 32.7069Z" fill="currentColor"/>
</svg>
